<?xml version="1.0" standalone="no"?>
<!DOCTYPE svg PUBLIC "-//W3C//DTD SVG 20010904//EN"
 "http://www.w3.org/TR/2001/REC-SVG-20010904/DTD/svg10.dtd">
<svg version="1.0" xmlns="http://www.w3.org/2000/svg"
 width="500.000000pt" height="500.000000pt" viewBox="0 0 500.000000 500.000000"
 preserveAspectRatio="xMidYMid meet">
<metadata>
Created by potrace 1.16, written by Peter Selinger 2001-2019
</metadata>
<g transform="translate(0.000000,500.000000) scale(0.100000,-0.100000)"
fill="#000000" stroke="none">
<path d="M2305 3314 c-308 -69 -527 -336 -528 -644 0 -117 17 -189 70 -299 85
-177 260 -316 449 -356 228 -48 445 16 609 180 133 132 196 281 197 460 1 121
-15 192 -69 304 -78 162 -225 286 -407 343 -85 26 -233 32 -321 12z m120 -290
c61 -3 121 -8 135 -9 14 -2 32 -4 41 -4 31 -2 28 -28 -17 -137 -24 -60 -44
-110 -44 -111 0 -2 45 -3 100 -3 95 0 100 -1 105 -22 2 -13 -8 -117 -23 -233
-23 -177 -30 -210 -45 -213 -21 -4 -22 11 -2 223 8 88 15 168 15 178 0 16 -9
17 -87 15 l-87 -3 -86 -205 c-60 -144 -90 -206 -102 -208 -10 -2 -18 2 -18 9
0 7 56 156 125 332 69 176 124 321 122 323 -5 5 -347 27 -352 23 -2 -3 4 -34
15 -69 10 -36 24 -84 30 -107 l11 -43 89 0 c50 0 90 -4 90 -8 0 -5 -6 -16 -13
-25 -10 -15 -27 -17 -106 -15 l-94 3 -50 148 c-60 182 -60 182 58 173 44 -3
130 -8 190 -12z"/>
</g>
</svg>
